<?xml version="1.0" standalone="no"?>
<!DOCTYPE svg PUBLIC "-//W3C//DTD SVG 20010904//EN"
 "http://www.w3.org/TR/2001/REC-SVG-20010904/DTD/svg10.dtd">
<svg version="1.0" xmlns="http://www.w3.org/2000/svg"
 width="113.000000pt" height="113.000000pt" viewBox="0 0 113.000000 113.000000"
 preserveAspectRatio="xMidYMid meet">
<metadata>
Created by potrace 1.10, written by Peter Selinger 2001-2011
</metadata>
<g transform="translate(0.000000,113.000000) scale(0.100000,-0.100000)"
fill="#000000" stroke="none">
<path d="M388 1101 c-162 -52 -309 -199 -358 -359 -11 -35 -20 -78 -19 -96 l1
-31 11 32 c7 17 15 35 20 39 4 4 7 15 7 25 0 25 50 119 96 179 60 79 217 188
275 191 8 0 32 9 54 19 l40 19 -35 0 c-19 0 -61 -8 -92 -18z"/>
<path d="M640 1108 c14 -5 33 -14 42 -19 10 -5 24 -9 32 -9 8 0 46 -16 85 -36
98 -50 196 -148 241 -239 18 -38 37 -78 42 -87 4 -10 8 -24 8 -31 0 -7 7 -22
16 -33 32 -39 6 77 -36 162 -68 138 -194 245 -339 288 -30 9 -68 16 -85 15
l-31 0 25 -11z"/>
<path d="M540 792 c-52 -14 -80 -47 -80 -94 0 -13 -7 -33 -15 -44 -19 -25 -19
-83 0 -108 10 -13 15 -44 15 -90 1 -88 13 -106 68 -106 55 0 72 25 72 108 0
53 4 66 24 85 32 30 38 57 21 90 -12 23 -12 31 1 55 18 36 18 55 -3 81 -20 23
-64 33 -103 23z m90 -61 c0 -36 -3 -40 -27 -43 -22 -2 -29 -9 -31 -30 -3 -25
0 -28 27 -28 28 0 31 -3 31 -30 0 -27 -3 -30 -30 -30 l-30 0 0 -100 0 -100
-40 0 -40 0 0 100 c0 93 -1 100 -20 100 -16 0 -20 7 -20 30 0 23 4 30 20 30
17 0 20 7 20 52 0 70 17 88 87 88 l53 0 0 -39z"/>
<path d="M11 486 c-1 -50 37 -161 79 -224 57 -90 132 -157 225 -202 81 -40
165 -62 165 -42 0 10 -86 42 -114 42 -8 0 -16 3 -18 8 -1 4 -30 24 -63 46
-114 73 -197 186 -254 346 -16 45 -20 50 -20 26z"/>
<path d="M1101 472 c-6 -12 -11 -30 -11 -41 0 -12 -4 -21 -10 -21 -5 0 -10 -9
-10 -19 0 -33 -71 -143 -129 -202 -74 -73 -180 -135 -263 -153 -47 -10 -34
-29 15 -22 76 11 201 81 271 151 72 72 140 193 152 270 7 52 1 67 -15 37z"/>
</g>
</svg>
