<?xml version="1.0" standalone="no"?>
<!DOCTYPE svg PUBLIC "-//W3C//DTD SVG 20010904//EN"
 "http://www.w3.org/TR/2001/REC-SVG-20010904/DTD/svg10.dtd">
<svg version="1.0" xmlns="http://www.w3.org/2000/svg"
 width="113.000000pt" height="113.000000pt" viewBox="0 0 113.000000 113.000000"
 preserveAspectRatio="xMidYMid meet">
<metadata>
Created by potrace 1.10, written by Peter Selinger 2001-2011
</metadata>
<g transform="translate(0.000000,113.000000) scale(0.100000,-0.100000)"
fill="#000000" stroke="none">
<path d="M379 1096 c-117 -41 -226 -129 -295 -237 -39 -62 -74 -166 -73 -219
1 -49 1 -49 30 50 42 145 158 286 290 353 40 20 81 37 90 37 9 0 19 3 23 8 4
4 29 12 54 18 l47 12 -50 1 c-29 0 -78 -9 -116 -23z"/>
<path d="M630 1108 c37 -10 41 -12 130 -48 79 -32 118 -59 185 -125 45 -45
110 -145 120 -188 4 -15 11 -30 16 -33 5 -3 9 -16 9 -28 0 -13 7 -39 15 -57
l14 -34 0 45 c1 98 -73 245 -167 333 -94 87 -223 147 -312 146 l-45 -1 35 -10z"/>
<path d="M387 739 c-28 -11 -37 -32 -37 -84 0 -16 -3 -67 -6 -113 -8 -104 -2
-124 38 -146 28 -15 55 -17 186 -14 150 3 154 4 174 28 19 23 20 34 14 165 -5
103 -11 144 -22 155 -12 12 -47 15 -167 17 -88 1 -164 -2 -180 -8z m342 -37
c5 -10 7 -23 3 -29 -13 -20 -164 -123 -181 -123 -9 1 -38 17 -66 36 -27 19
-65 45 -82 57 -31 21 -43 54 -26 70 3 4 82 7 174 7 152 0 169 -2 178 -18z
m-206 -181 c25 -14 32 -13 65 5 20 10 61 38 90 62 30 24 55 42 56 40 1 -2 0
-50 -3 -108 l-6 -105 -175 0 -175 0 -5 103 c-3 57 -4 105 -2 107 2 2 31 -18
65 -43 35 -26 75 -54 90 -61z"/>
<path d="M11 494 c-3 -147 142 -355 302 -432 72 -35 152 -56 189 -50 18 3 13
7 -22 17 -136 40 -260 115 -326 197 -41 53 -98 159 -113 214 -28 97 -29 99
-30 54z"/>
<path d="M1103 499 c-7 -20 -13 -45 -13 -57 0 -11 -4 -23 -9 -26 -5 -3 -12
-17 -15 -32 -8 -31 -72 -137 -106 -178 -53 -61 -227 -165 -279 -166 -9 -1 -29
-7 -46 -16 -29 -14 -29 -14 26 -9 109 10 233 77 322 176 82 90 143 230 135
309 l-3 34 -12 -35z"/>
</g>
</svg>
