<?xml version="1.0" standalone="no"?>
<!DOCTYPE svg PUBLIC "-//W3C//DTD SVG 20010904//EN"
 "http://www.w3.org/TR/2001/REC-SVG-20010904/DTD/svg10.dtd">
<svg version="1.0" xmlns="http://www.w3.org/2000/svg"
 width="113.000000pt" height="113.000000pt" viewBox="0 0 113.000000 113.000000"
 preserveAspectRatio="xMidYMid meet">
<metadata>
Created by potrace 1.10, written by Peter Selinger 2001-2011
</metadata>
<g transform="translate(0.000000,113.000000) scale(0.100000,-0.100000)"
fill="#000000" stroke="none">
<path d="M388 1101 c-162 -52 -309 -199 -358 -359 -17 -55 -29 -155 -13 -112
3 8 11 29 18 45 6 17 18 48 25 69 20 62 108 184 166 229 59 46 168 107 193
108 9 0 34 9 56 19 l40 19 -35 0 c-19 0 -61 -8 -92 -18z"/>
<path d="M620 1116 c0 -2 24 -11 53 -20 96 -30 198 -89 262 -151 63 -61 135
-171 135 -205 0 -10 5 -22 10 -25 6 -3 10 -17 10 -29 0 -13 7 -30 17 -37 30
-25 7 77 -37 167 -68 138 -194 245 -339 288 -50 15 -111 21 -111 12z"/>
<path d="M502 718 c-16 -17 -31 -22 -61 -19 -32 2 -42 -2 -60 -25 -13 -17 -21
-41 -21 -65 0 -30 -6 -45 -26 -62 -41 -35 -48 -55 -29 -83 8 -13 22 -24 29
-24 8 0 29 -12 47 -27 33 -28 34 -28 185 -28 141 0 154 2 176 21 13 12 37 28
53 35 44 21 46 66 5 102 -31 28 -33 34 -31 77 1 14 -7 38 -19 53 -17 21 -30
27 -61 27 -26 0 -47 7 -61 20 -31 28 -96 27 -126 -2z m108 -18 c20 -20 29 -98
13 -113 -3 -4 -8 -18 -9 -32 -2 -22 6 -30 57 -55 52 -27 59 -34 59 -60 l0 -30
-165 0 -165 0 0 23 c0 28 19 47 79 77 40 20 43 23 36 53 -18 88 -17 115 4 136
26 26 65 27 91 1z m-140 -52 c12 -23 13 -31 2 -48 -15 -25 -15 -47 1 -54 9 -5
9 -7 -1 -12 -7 -3 -33 -21 -58 -40 -55 -42 -94 -46 -94 -9 0 20 9 30 44 47 40
19 51 37 33 54 -12 12 -8 69 5 82 20 20 51 10 68 -20z m260 17 c9 -10 10 -31
6 -65 l-7 -49 41 -21 c30 -16 40 -26 40 -45 0 -21 -5 -25 -30 -25 -17 0 -33 6
-36 14 -3 8 -25 25 -50 37 -42 23 -56 39 -34 39 7 0 8 18 4 50 -7 54 5 80 36
80 10 0 23 -7 30 -15z"/>
<path d="M10 481 c0 -91 76 -238 171 -330 60 -58 189 -127 256 -137 49 -7 62
12 16 21 -16 4 -36 10 -45 16 -10 5 -25 9 -33 9 -9 0 -21 5 -28 10 -7 6 -34
25 -62 43 -113 72 -207 201 -249 340 -10 31 -20 57 -22 57 -2 0 -4 -13 -4 -29z"/>
<path d="M1096 464 c-3 -9 -6 -24 -6 -35 0 -10 -4 -19 -10 -19 -5 0 -10 -8
-10 -19 0 -40 -76 -152 -150 -221 -66 -62 -168 -118 -242 -134 -47 -10 -34
-29 15 -22 76 11 201 81 271 152 71 70 141 195 152 272 6 42 -7 60 -20 26z"/>
</g>
</svg>
