<?xml version="1.0" standalone="no"?>
<!DOCTYPE svg PUBLIC "-//W3C//DTD SVG 20010904//EN"
 "http://www.w3.org/TR/2001/REC-SVG-20010904/DTD/svg10.dtd">
<svg version="1.0" xmlns="http://www.w3.org/2000/svg"
 width="113.000000pt" height="113.000000pt" viewBox="0 0 113.000000 113.000000"
 preserveAspectRatio="xMidYMid meet">
<metadata>
Created by potrace 1.10, written by Peter Selinger 2001-2011
</metadata>
<g transform="translate(0.000000,113.000000) scale(0.100000,-0.100000)"
fill="#000000" stroke="none">
<path d="M388 1101 c-162 -52 -309 -199 -358 -359 -11 -35 -20 -78 -19 -96 l1
-31 11 32 c7 17 15 35 20 39 4 4 7 16 7 27 0 53 112 213 189 270 58 44 157 97
179 97 7 0 20 4 30 9 9 5 28 14 42 19 24 10 24 11 -10 11 -19 0 -61 -8 -92
-18z"/>
<path d="M655 1100 c22 -10 47 -19 55 -19 39 -2 168 -80 224 -136 63 -62 136
-172 136 -205 0 -10 5 -22 10 -25 6 -3 10 -17 10 -29 0 -13 7 -30 17 -37 30
-25 7 77 -37 167 -68 138 -194 245 -339 288 -30 9 -68 16 -85 15 l-31 0 40
-19z"/>
<path d="M402 744 c-20 -14 -22 -24 -22 -100 l0 -85 95 -98 c52 -53 106 -103
119 -111 36 -19 73 0 140 70 84 88 82 98 -52 232 l-108 108 -75 0 c-51 0 -81
-5 -97 -16z m272 -123 l108 -108 -77 -77 c-42 -42 -80 -76 -84 -76 -4 0 -55
50 -114 110 l-107 110 0 75 0 75 83 0 82 0 109 -109z"/>
<path d="M467 678 c-21 -11 -22 -31 -3 -47 20 -16 46 -3 46 24 0 27 -19 37
-43 23z"/>
<path d="M540 615 c-9 -10 -9 -15 -1 -15 6 0 11 -7 11 -15 0 -17 -16 -20 -25
-5 -3 6 -11 10 -17 10 -6 0 -3 -9 7 -20 22 -24 60 -10 50 20 -5 15 -2 17 17
12 21 -5 22 -4 9 11 -17 21 -35 22 -51 2z"/>
<path d="M570 559 c-15 -27 -6 -49 19 -49 23 0 52 36 44 56 -8 21 -51 17 -63
-7z m50 2 c0 -16 -31 -42 -41 -35 -6 4 -3 14 7 25 18 20 34 25 34 10z"/>
<path d="M634 529 c-8 -14 11 -33 25 -25 6 4 11 14 11 22 0 16 -26 19 -36 3z"/>
<path d="M630 490 c-33 -7 -33 -7 -6 -9 23 -1 26 -4 17 -15 -8 -10 -8 -16 3
-25 10 -9 16 -8 25 3 9 11 9 16 -1 22 -8 5 -3 12 17 20 29 13 29 13 5 12 -14
0 -41 -4 -60 -8z"/>
<path d="M10 484 c0 -92 78 -245 172 -335 59 -56 189 -125 255 -135 63 -10 54
11 -14 32 -179 56 -329 213 -387 407 -20 63 -26 71 -26 31z"/>
<path d="M1101 472 c-6 -12 -11 -30 -11 -41 0 -12 -4 -21 -10 -21 -5 0 -10 -9
-10 -19 0 -33 -71 -143 -129 -202 -74 -73 -180 -135 -263 -153 -47 -10 -34
-29 15 -22 76 11 201 81 271 151 72 72 140 193 152 270 7 52 1 67 -15 37z"/>
</g>
</svg>
